<svg id="Imagotipo" xmlns="http://www.w3.org/2000/svg" xmlns:xlink="http://www.w3.org/1999/xlink" width="156.151" height="72" viewBox="0 0 156.151 72">
  <defs>
    <clipPath id="clip-path">
      <rect id="Rect치ngulo_4210" data-name="Rect치ngulo 4210" width="156.151" height="72" fill="none"/>
    </clipPath>
  </defs>
  <g id="Grupo_10146" data-name="Grupo 10146" clip-path="url(#clip-path)">
    <path id="Trazado_7675" data-name="Trazado 7675" d="M169.655,119.805V117.78h2.3v-5h2.485v5h3.068v2.025h-3.068v10.309q0,1.473,1.6,1.473a4.143,4.143,0,0,0,1.319-.215h.092v2.148a9.624,9.624,0,0,1-1.994.215q-3.5,0-3.5-3.068V119.805Z" transform="translate(-113.355 -75.353)" fill="#050a6b"/>
    <path id="Trazado_7676" data-name="Trazado 7676" d="M212.557,143.249a2.5,2.5,0,0,1-2.731-2.362H209.8a6.348,6.348,0,0,1-5.277,2.516,6.239,6.239,0,0,1-3.866-1.135,3.862,3.862,0,0,1-1.5-3.283,4.789,4.789,0,0,1,.353-1.917,3.821,3.821,0,0,1,.9-1.319,4.923,4.923,0,0,1,1.519-.89,12.466,12.466,0,0,1,1.856-.583q.89-.2,2.271-.414.89-.122,1.273-.2t1-.246a2.258,2.258,0,0,0,.859-.383,2.326,2.326,0,0,0,.46-.583,1.675,1.675,0,0,0,.215-.859,2.459,2.459,0,0,0-.936-2.071,4.215,4.215,0,0,0-2.623-.721q-3.835,0-3.958,3.5h-2.393a5.217,5.217,0,0,1,1.672-3.9,6.657,6.657,0,0,1,4.649-1.472q5.86,0,5.86,5.031v7.548a2.352,2.352,0,0,0,.353,1.473q.352.43,1.334.215h.092V143a3.606,3.606,0,0,1-1.35.246m-7.487-1.749a4.655,4.655,0,0,0,3.559-1.335,4.191,4.191,0,0,0,1.258-2.93v-2.7a10.962,10.962,0,0,1-3.62,1.166q-.92.184-1.442.292a7.7,7.7,0,0,0-1.2.368,3.265,3.265,0,0,0-1.013.568,2.623,2.623,0,0,0-.583.813,2.675,2.675,0,0,0-.246,1.181q0,2.577,3.283,2.577" transform="translate(-133.061 -84.806)" fill="#050a6b"/>
    <path id="Trazado_7677" data-name="Trazado 7677" d="M252.577,127.109V129.2h.061a5.95,5.95,0,0,1,5.032-2.454,5.531,5.531,0,0,1,3.927,1.319,4.916,4.916,0,0,1,1.411,3.774v11.138h-2.485V132.049a3.014,3.014,0,0,0-.951-2.378,3.841,3.841,0,0,0-2.639-.844,4.2,4.2,0,0,0-4.357,4.387v9.757h-2.485V127.109Z" transform="translate(-167.099 -84.682)" fill="#050a6b"/>
    <path id="Trazado_7678" data-name="Trazado 7678" d="M304.364,148.248a8.548,8.548,0,0,1-4.771-1.151,4.222,4.222,0,0,1-1.948-3.237h2.3q.337,2.423,4.357,2.424,4.541,0,4.541-4.081v-2.24h-.061a7.018,7.018,0,0,1-2.025,1.841,5.311,5.311,0,0,1-2.669.614,6.338,6.338,0,0,1-5-2.209,8.26,8.26,0,0,1-1.933-5.645,8.1,8.1,0,0,1,1.948-5.707,6.3,6.3,0,0,1,4.833-2.117,5.619,5.619,0,0,1,4.848,2.393h.061v-2.025h2.485v15a5.634,5.634,0,0,1-1.856,4.587,7.737,7.737,0,0,1-5.108,1.549m-.153-7.916q4.816,0,4.817-5.891,0-5.614-4.848-5.615a3.877,3.877,0,0,0-3.329,1.565,6.943,6.943,0,0,0-1.151,4.2,6.805,6.805,0,0,0,1.166,4.188,3.933,3.933,0,0,0,3.344,1.549" transform="translate(-198.543 -84.681)" fill="#050a6b"/>
    <path id="Trazado_7679" data-name="Trazado 7679" d="M361.506,140.946a7.658,7.658,0,0,1-11.122,0,9.48,9.48,0,0,1,0-11.9,7.658,7.658,0,0,1,11.122,0,9.534,9.534,0,0,1,0,11.9m-9.343-1.458a4.935,4.935,0,0,0,7.563,0,8.329,8.329,0,0,0-.016-9.021,4.9,4.9,0,0,0-7.548.016,8.262,8.262,0,0,0,0,9.005" transform="translate(-232.704 -84.62)" fill="#050a6b"/>
    <path id="Trazado_7680" data-name="Trazado 7680" d="M0,32.1l20.233,0,11.905,5.007V0Z" transform="translate(0 0)" fill="#1d43fb"/>
    <path id="Trazado_7681" data-name="Trazado 7681" d="M20.254,103.728v-7L0,96.723l20.3,19.953Z" transform="translate(0 -64.625)" fill="#001db4"/>
    <path id="Trazado_7682" data-name="Trazado 7682" d="M89.058,108.521,61.033,96.735v17.634l.049,22.265Z" transform="translate(-40.779 -64.634)" fill="#51ebc0"/>
    <path id="Trazado_7683" data-name="Trazado 7683" d="M177.318,60.387a8.579,8.579,0,0,1-5.412-1.526,5.541,5.541,0,0,1-2.14-4.169h3.965q.408,2.675,3.524,2.675a3.991,3.991,0,0,0,2.187-.5,1.546,1.546,0,0,0,.771-1.353,1.409,1.409,0,0,0-.11-.566,1.189,1.189,0,0,0-.378-.456q-.268-.2-.472-.33a2.751,2.751,0,0,0-.708-.252q-.5-.125-.771-.189t-.913-.173q-.645-.11-.9-.173a18.668,18.668,0,0,1-2.155-.519,9.294,9.294,0,0,1-1.747-.787,3.354,3.354,0,0,1-1.369-1.416,4.7,4.7,0,0,1-.456-2.155,4.433,4.433,0,0,1,1.841-3.839,7.928,7.928,0,0,1,4.736-1.321,7.594,7.594,0,0,1,4.893,1.432,5.518,5.518,0,0,1,2.03,3.918h-3.87q-.252-2.36-3.115-2.36a3.749,3.749,0,0,0-2.03.472,1.485,1.485,0,0,0-.739,1.321,1.21,1.21,0,0,0,.11.519.993.993,0,0,0,.378.409,3.616,3.616,0,0,0,.519.283,4.345,4.345,0,0,0,.724.22q.472.111.818.188t.944.189l.944.173q1.006.221,1.652.393a9.549,9.549,0,0,1,1.495.566,4.642,4.642,0,0,1,1.337.881,4.247,4.247,0,0,1,.85,1.321,4.833,4.833,0,0,1,.362,1.935,4.486,4.486,0,0,1-1.872,3.792,8.02,8.02,0,0,1-4.924,1.4" transform="translate(-113.429 -28.953)" fill="#050a6b"/>
    <path id="Trazado_7684" data-name="Trazado 7684" d="M228.787,59.979a4.292,4.292,0,0,1-.5-1.794h-.063a4.788,4.788,0,0,1-1.762,1.6,6.476,6.476,0,0,1-2.989.566,6.163,6.163,0,0,1-4.09-1.29,4.494,4.494,0,0,1-1.542-3.65,4.041,4.041,0,0,1,1.7-3.6,11.473,11.473,0,0,1,4.783-1.589,15.128,15.128,0,0,0,3.084-.645,1.186,1.186,0,0,0,.818-1.18,1.66,1.66,0,0,0-.692-1.4,3.319,3.319,0,0,0-2.014-.519q-2.926,0-3.115,2.266h-3.807a5.1,5.1,0,0,1,1.856-3.807,7.623,7.623,0,0,1,5.1-1.51q6.8,0,6.8,5.947v8.213q0,1.825.566,2.234v.157Zm-4.28-2.612a4.031,4.031,0,0,0,2.785-.913,2.817,2.817,0,0,0,1.022-2.171V51.861a12.7,12.7,0,0,1-2.989.944,7.883,7.883,0,0,0-2.58.928,1.8,1.8,0,0,0-.755,1.589q0,2.046,2.517,2.045" transform="translate(-145.548 -29.016)" fill="#050a6b"/>
    <path id="Trazado_7685" data-name="Trazado 7685" d="M266.859,37.356V34.524h2.234V29.489h4.185v5.035h2.769v2.832h-2.769v8.559a1.418,1.418,0,0,0,1.6,1.6l1.259-.032v3.147q-.976.063-2.675.063a5.229,5.229,0,0,1-3.115-.9,3.4,3.4,0,0,1-1.259-2.973V37.356Z" transform="translate(-178.302 -19.703)" fill="#050a6b"/>
    <path id="Trazado_7686" data-name="Trazado 7686" d="M313.793,57.949a8.781,8.781,0,0,1-12.146,0,9.034,9.034,0,0,1,0-12.178,8.781,8.781,0,0,1,12.146,0,9.035,9.035,0,0,1,0,12.178m-6.073-.834a3.56,3.56,0,0,0,3-1.432,6.172,6.172,0,0,0,1.086-3.823,6.244,6.244,0,0,0-1.086-3.839,3.872,3.872,0,0,0-6.026-.016,6.294,6.294,0,0,0-1.07,3.854,6.236,6.236,0,0,0,1.07,3.823,3.549,3.549,0,0,0,3.021,1.432" transform="translate(-199.968 -28.953)" fill="#050a6b"/>
    <path id="Trazado_7687" data-name="Trazado 7687" d="M361.549,60.387a8.579,8.579,0,0,1-5.412-1.526A5.542,5.542,0,0,1,354,54.692h3.965q.409,2.675,3.524,2.675a3.991,3.991,0,0,0,2.187-.5,1.545,1.545,0,0,0,.771-1.353,1.409,1.409,0,0,0-.11-.566,1.186,1.186,0,0,0-.378-.456q-.268-.2-.472-.33a2.764,2.764,0,0,0-.708-.252q-.5-.125-.771-.189t-.913-.173q-.645-.11-.9-.173a18.668,18.668,0,0,1-2.155-.519,9.291,9.291,0,0,1-1.747-.787,3.354,3.354,0,0,1-1.369-1.416,4.7,4.7,0,0,1-.456-2.155,4.431,4.431,0,0,1,1.841-3.839,7.926,7.926,0,0,1,4.736-1.321,7.594,7.594,0,0,1,4.893,1.432,5.52,5.52,0,0,1,2.03,3.918H364.1q-.252-2.36-3.115-2.36a3.748,3.748,0,0,0-2.029.472,1.485,1.485,0,0,0-.74,1.321,1.209,1.209,0,0,0,.11.519.993.993,0,0,0,.378.409,3.615,3.615,0,0,0,.519.283,4.346,4.346,0,0,0,.724.22q.472.111.818.188t.944.189l.944.173q1.007.221,1.652.393a9.547,9.547,0,0,1,1.495.566,4.637,4.637,0,0,1,1.337.881,4.247,4.247,0,0,1,.85,1.321,4.834,4.834,0,0,1,.362,1.935,4.487,4.487,0,0,1-1.872,3.792,8.021,8.021,0,0,1-4.924,1.4" transform="translate(-236.523 -28.953)" fill="#050a6b"/>
    <path id="Trazado_7688" data-name="Trazado 7688" d="M408.244,25.507v8.465h.094a6.2,6.2,0,0,1,2-1.935,5.4,5.4,0,0,1,2.69-.614,5.208,5.208,0,0,1,4.028,1.683,6.2,6.2,0,0,1,1.542,4.358V48.005h-4.28V38.093a3.07,3.07,0,0,0-.739-2.14,2.637,2.637,0,0,0-2.061-.818,3.009,3.009,0,0,0-2.344,1.038,3.862,3.862,0,0,0-.928,2.675v9.156h-4.28v-22.5Z" transform="translate(-269.909 -17.042)" fill="#050a6b"/>
    <path id="Trazado_7689" data-name="Trazado 7689" d="M456.29,27.629h0a2.122,2.122,0,0,1,2.122-2.122h.487a2.122,2.122,0,1,1,0,4.244h-.487a2.122,2.122,0,0,1-2.122-2.122" transform="translate(-304.87 -17.042)" fill="#050a6b"/>
    <rect id="Rect치ngulo_4209" data-name="Rect치ngulo 4209" width="4.28" height="16.142" transform="translate(151.646 14.821)" fill="#050a6b"/>
  </g>
</svg>
